<?xml version="1.0" encoding="UTF-8"?>
<!DOCTYPE svg PUBLIC "-//W3C//DTD SVG 1.1//EN" "http://www.w3.org/Graphics/SVG/1.1/DTD/svg11.dtd">
<!-- Creator: CorelDRAW -->
<svg xmlns="http://www.w3.org/2000/svg" xml:space="preserve" width="297mm" height="297mm" version="1.1" shape-rendering="geometricPrecision" text-rendering="geometricPrecision" image-rendering="optimizeQuality" fill-rule="evenodd" clip-rule="evenodd"
viewBox="0 0 29698.94 29698.94"
 xmlns:xlink="http://www.w3.org/1999/xlink"
 xmlns:xodm="http://www.corel.com/coreldraw/odm/2003">
 <g id="Camada_x0020_1">
  <metadata id="CorelCorpID_0Corel-Layer"/>
  <g id="_2578053061632">
   <path fill="aqua" fill-rule="nonzero" d="M12735.6 2760.17c727.87,-48.7 1455.24,-123 2185.62,-121.5 0.99,635.52 1.5,1271.01 2.51,1907.03 -1040.11,-23.1 -2086.24,46.68 -3105.25,262.53 -692.24,117.96 -1361.87,334.31 -2038.03,518.54 -1086.8,338.83 -2129.9,806.68 -3131.35,1345.3 -23.59,2839.7 1.5,5680.4 -12.55,8520.59 5.02,345.88 -10.05,697.26 67.27,1037.6 100.9,513.01 205.81,1028.56 386.52,1520.5 239.95,566.73 468.84,1142.01 792.12,1668.58 827.27,1350.31 1914.56,2549.05 3203.64,3472.69 664.13,471.36 1348.32,919.63 2070.67,1298.12 14.05,714.3 13.54,1429.63 8.02,2144.45 -1117.89,-499.96 -2154.48,-1163.08 -3154.42,-1865.35 -428.69,-320.26 -834.81,-669.64 -1234.89,-1024.04 -1048.11,-925.64 -1925.09,-2035.02 -2636.39,-3236.76 -361.43,-627.98 -642.54,-1297.61 -880.49,-1980.8 -216.84,-574.77 -276.58,-1191.19 -423.16,-1784.04 -100.38,-375.99 -99.89,-768.04 -104.91,-1153.06 3.02,-3011.86 3.52,-6023.75 0,-9035.62 1.01,-230.9 2.51,-460.81 13.04,-690.72 400.1,-216.34 780.58,-466.34 1187.71,-670.66 795.62,-448.26 1641.95,-795.13 2492.82,-1122.42 310.72,-113.95 631.5,-199.27 943.22,-311.23 450.76,-161.64 919.63,-259.53 1382.95,-375.99 659.61,-119.47 1315.67,-271.57 1985.33,-323.76z"/>
   <path fill="aqua" fill-rule="nonzero" d="M15805.7 10760.22c-14.05,264.03 -49.69,526.56 -103.4,785.08 -135.55,635.01 -249.99,1274.52 -348.38,1916.06 -107.93,588.82 -229.91,1175.64 -285.13,1772.48 760.51,15.57 1521.01,-9.52 2281.5,23.1 -241.45,497.95 -555.19,955.78 -816.71,1442.69 -282.12,529.59 -615.44,1029.55 -905.59,1555.14 -416.63,761.99 -894.02,1488.87 -1311.65,2250.86 -190.76,299.68 -349.89,617.94 -544.66,915.12 180.7,-1105.38 470.36,-2192.14 609.9,-3304.54 62.76,-354.4 153.1,-703.75 197.29,-1061.68 -775.56,-18.58 -1550.61,3 -2325.18,-14.56 89.36,-219.37 208.34,-424.66 330.81,-626.97 434.72,-696.75 818.73,-1423.12 1222.33,-2137.93 679.16,-1164.6 1310.15,-2355.79 1998.87,-3514.84z"/>
   <path fill="aqua" fill-rule="nonzero" d="M14928.75 20714.94c299.67,-11.52 599.86,-21.58 899.04,-47.67 10.55,1309.14 -29.12,2619.32 22.6,3927.97 -153.1,136.56 -301.19,279.11 -476.88,387.02 -492.94,332.33 -998.44,644.55 -1502.93,958.8 -5.53,-1025.03 2.01,-2049.57 -8.54,-3074.11 5.52,-176.2 -21.59,-372.48 75.3,-531.11 331.3,-529.57 634.51,-1076.23 943.73,-1618.87l47.69 -2.02z"/>
   <path fill="aqua" fill-rule="nonzero" d="M14921.22 2638.68c640.03,2.51 1286.07,-29.12 1918.55,92.89 322.27,65.24 649.57,92.86 976.88,120.97 851.35,142.57 1682.63,376.49 2514.89,601.88 1473.32,467.83 2886.38,1112.89 4216.13,1899.48 143.06,87.34 298.69,162.64 414.64,287.13 10.05,1327.73 -12.04,2655.97 6.02,3983.72 -8.53,155.1 13.06,317.24 -14.54,472.85 -110.44,276.6 -344.87,480.89 -593.86,633.01 -388.02,262.52 -835.3,409.62 -1261.96,594.33 13.04,-1538.06 5.51,-3075.63 7.03,-4613.2 -438.23,-267.55 -904.07,-483.91 -1372.93,-690.21 -1265.96,-596.87 -2628.35,-962.3 -3999.26,-1224.33 -348.88,-51.71 -699.75,-88.85 -1046.13,-155.12 -580.27,-113.46 -1175.62,-91.85 -1762.94,-96.37 -1.01,-636.02 -1.52,-1271.51 -2.51,-1907.03z"/>
   <path fill="aqua" fill-rule="nonzero" d="M11163.4 6634.43c62.75,-309.72 375.48,-566.73 699.75,-523.07 240.46,3.53 545.65,41.68 660.1,294.18 193.78,189.23 120.49,467.83 143.58,705.76 -2.53,1002.46 -2.53,2004.91 -4.01,3007.38 -518.55,3 -1036.09,3.48 -1554.12,-1.01 -3.53,-660.63 -18.09,-1321.72 32.11,-1980.82 32.14,-500.48 0.51,-1002.45 22.6,-1502.43z"/>
   <path fill="aqua" fill-rule="nonzero" d="M17028.51 6869.34c-76.3,-403.58 310.24,-792.6 706.81,-766.5 223.85,-30.11 424.66,32.13 602.37,185.72 110.93,194.77 221.36,406.61 195.26,640.54 15.04,1063.19 0,2126.87 3.01,3190.08 -501.48,2.51 -1002.95,2.51 -1503.94,-0.49 -0.99,-1083.28 -3.52,-2166.54 -3.52,-3249.34z"/>
   <path fill="aqua" fill-rule="nonzero" d="M8999.88 10650.27c330.28,-43.18 665.12,-29.63 997.92,-32.12 1727.82,13.04 3455.63,-9.03 5183.44,10.53 -116.97,199.79 -196.26,437.23 -382.01,585.82 -777.56,105.93 -1543.09,283.12 -2296.05,501.98 -927.17,238.43 -1815.66,634.5 -2772.44,748.94 -276.09,13.57 -570.23,66.77 -827.76,-66.76 -214.84,-52.71 -276.58,-317.24 -257,-504.99 12.05,-353.89 -77.82,-737.91 87.83,-1067.71 30.63,-126.5 163.64,-145.58 266.07,-175.69z"/>
   <path fill="aqua" fill-rule="nonzero" d="M16431.16 10622.16c410.62,-0.99 823.25,-10.03 1233.88,17.57 983.37,73.8 1969.77,7.52 2954.63,32.14 102.93,3 203.3,38.64 290.15,93.86 230.41,387.04 115.47,854.37 142.06,1280.04l-51.71 6.03c-1,-236.93 -4.01,-472.85 -12.03,-708.79 -546.18,-42.16 -1089.82,-111.94 -1632.46,-184.73 -967.8,-125.99 -1945.66,-150.59 -2920.52,-133.04 -2,-134.52 -3.5,-269.05 -4.01,-403.08z"/>
   <path fill="aqua" fill-rule="nonzero" d="M24359.92 10730.6c248.99,-152.11 483.42,-356.41 593.86,-633.01 20.07,1696.7 1.5,3393.39 11.52,5090.58 10.55,734.39 -148.07,1454.74 -292.13,2170.56 -319.76,1133.46 -743.93,2246.85 -1371.91,3247.79 -476.88,788.6 -1076.74,1491.37 -1691.69,2173.57 -1243.39,1309.66 -2752.83,2333.7 -4330.07,3199.62 -621.95,355.9 -1289.56,620.95 -1936.62,926.15 -196.27,85.33 -400.59,209.82 -624.48,131.52 -295.66,-87.84 -562.7,-247.99 -842.81,-373.96 -4.53,-241.96 -9.55,-481.42 -5.02,-722.36 504.48,-314.25 1009.98,-626.47 1502.93,-958.8 175.69,-107.91 323.78,-250.46 476.88,-387.02 1288.06,-687.2 2555.57,-1442.68 3648.37,-2419.53 730.39,-627.48 1361.88,-1362.36 1928.11,-2138.92 361.93,-543.65 707.29,-1105.86 941.7,-1717.79 155.63,-401.58 351.89,-791.11 444.77,-1213.28 62.25,-338.83 127,-676.67 190.74,-1015 130.02,-896.04 100.4,-1804.6 101.41,-2707.17 0.49,-686.21 -1.52,-1372.91 -7.53,-2058.62 426.66,-184.71 873.95,-331.81 1261.96,-594.33z"/>
   <path fill="aqua" fill-rule="nonzero" d="M16385.49 11026.25l49.69 -1.01c974.86,-17.56 1952.72,7.05 2920.52,133.04 542.64,72.8 1086.28,142.57 1632.46,184.73 8.02,235.94 11.03,471.86 12.03,708.79 -2.51,114.45 -47.69,232.9 -137.54,307.2 -135.05,66.76 -300.19,47.71 -441.73,64.76 -737.41,21.1 -1475.34,-16.56 -2211.23,28.61 -678.67,37.14 -1358.85,39.67 -2037.52,10.05 -9.05,-488.92 149.07,-956.29 213.32,-1436.17z"/>
   <path fill="aqua" fill-rule="nonzero" d="M12503.18 11716.48c752.95,-218.86 1518.49,-396.06 2296.05,-501.98 -172.17,423.65 -427.69,804.66 -648.07,1203.24 -566.71,5.03 -1133.46,17.56 -1699.19,54.72 -907.08,13.55 -1814.65,16.56 -2721.23,-7.03 956.79,-114.45 1845.27,-510.51 2772.44,-748.94z"/>
   <path fill="aqua" fill-rule="nonzero" d="M9451.65 12981.48c1170.11,0 2340.22,-3.53 3510.33,0 271.57,-5.03 541.15,27.09 811.19,57.2 -209.31,460.32 -485.41,886.02 -724.85,1330.77 -371.96,678.67 -766.02,1345.28 -1140,2022.96 -227.39,406.12 -479.88,797.65 -702.76,1206.76 888,6.02 1776.01,-5.02 2664,-1.01 -123,622.48 -223.37,1249.45 -333.32,1874.89 -81.32,356.41 -151.58,715.82 -187.24,1080.77 -542.13,-66.76 -1052.63,-291.14 -1522.49,-561.22 -1095.33,-629.97 -1937.14,-1711.24 -2225.29,-2946.61 -126.5,-609.4 -154.09,-1234.37 -153.08,-1854.81 2.5,-736.9 1.5,-1473.3 3.51,-2209.69z"/>
   <path fill="aqua" fill-rule="nonzero" d="M16033.11 13032.66c1386.45,-4.01 2772.92,-1.52 4159.9,-1.01 2.49,921.63 -2.02,1843.26 4.01,2764.9 -4.01,295.17 13.55,596.35 -64.27,885.49 -154.6,713.31 -411.63,1420.61 -859.88,2004.92 -327.3,421.64 -708.79,805.67 -1149.03,1109.87 -690.21,450.27 -1470.79,786.1 -2296.06,870.44 -299.18,26.09 -599.37,36.15 -899.04,47.67 205.3,-475.36 490.43,-909.57 749.94,-1355.33 616.95,-1056.67 1246.94,-2105.79 1849.81,-3170.49 293.65,-523.58 621.44,-1027.55 906.57,-1556.13 -887.01,2 -1773.51,9.03 -2660.49,5 105.41,-532.08 186.23,-1068.22 258.52,-1605.32z"/>
  </g>
  <rect fill="none" x="-0" width="29698.94" height="29698.94"/>
 </g>
</svg>
