<?xml version="1.0" encoding="UTF-8"?>
<!DOCTYPE svg PUBLIC "-//W3C//DTD SVG 1.1//EN" "http://www.w3.org/Graphics/SVG/1.1/DTD/svg11.dtd">
<!-- Creator: CorelDRAW -->
<svg xmlns="http://www.w3.org/2000/svg" xml:space="preserve" width="253.108mm" height="169.994mm" version="1.1" shape-rendering="geometricPrecision" text-rendering="geometricPrecision" image-rendering="optimizeQuality" fill-rule="evenodd" clip-rule="evenodd"
viewBox="0 0 25309.78 16998.7"
 xmlns:xlink="http://www.w3.org/1999/xlink"
 xmlns:xodm="http://www.corel.com/coreldraw/odm/2003">
 <g id="Camada_x0020_1">
  <metadata id="CorelCorpID_0Corel-Layer"/>
  <g id="_2300483295616">
   <path fill="white" fill-rule="nonzero" d="M11746.5 53.09c313.14,-20.95 626.06,-52.91 940.28,-52.27 275.36,1.08 553.3,-12.53 825.4,39.96 138.64,28.07 279.46,39.95 420.27,52.05 366.26,61.33 723.89,161.96 1081.95,258.94 633.84,201.26 1241.77,478.78 1813.84,817.19 61.55,37.57 128.5,69.97 178.38,123.52 4.32,571.21 -5.18,1142.64 2.59,1713.86 -3.67,66.73 5.62,136.48 -6.25,203.43 8.63,729.95 0.64,1459.89 4.95,2190.05 4.54,315.95 -63.71,625.85 -125.67,933.81 -137.56,487.63 -320.06,966.63 -590.23,1397.25 -205.16,339.28 -463.23,641.61 -727.79,935.11 -534.93,563.44 -1184.31,1003.99 -1862.86,1376.52 -267.57,153.11 -554.79,267.15 -833.17,398.44 -84.44,36.71 -172.34,90.27 -268.66,56.58 -127.19,-37.79 -242.09,-106.69 -362.59,-160.88 -1.95,-104.09 -4.11,-207.11 -2.16,-310.77 -2.38,-440.98 0.87,-881.76 -3.67,-1322.54 2.38,-75.81 -9.29,-160.24 32.4,-228.49 266.98,-426.77 497.11,-847.47 749.16,-1280.42 265.42,-454.6 536.45,-905.95 795.82,-1364 126.33,-225.25 267.35,-442.07 390.01,-669.47 -381.6,0.86 -762.99,3.89 -1144.57,2.15 45.34,-228.91 80.12,-459.56 111.22,-690.63 596.48,-1.73 1192.96,-0.65 1789.66,-0.44 1.07,396.5 -0.87,793.01 1.72,1189.51 -1.72,126.98 5.83,256.56 -27.65,380.95 -66.51,306.88 -177.08,611.16 -369.92,862.54 -140.81,181.4 -304.94,346.62 -494.34,477.48 -296.94,193.72 -632.75,338.2 -987.8,374.48 4.54,563.22 -12.53,1126.87 9.72,1689.87 554.15,-295.64 1099.45,-620.66 1569.59,-1040.92 314.23,-269.95 585.91,-586.11 829.51,-920.2 221.91,-333.34 509.61,-866.14 596.48,-1261 26.78,-145.76 54.64,-291.11 82.07,-436.66 55.94,-385.49 43.19,-776.37 43.63,-1164.67 0.21,-295.22 -0.66,-590.65 -3.24,-885.65 5.61,-661.69 2.37,-1323.19 3.02,-1984.67 -188.53,-115.11 -388.94,-208.19 -590.66,-296.95 -544.64,-256.78 -1130.75,-413.99 -1720.55,-526.72 -150.08,-22.25 -301.04,-38.23 -450.06,-66.74 -249.64,-48.81 -505.77,-39.52 -758.45,-41.46 -447.47,-9.94 -897.52,20.08 -1335.92,112.95 -297.81,50.75 -585.9,143.82 -876.79,223.08 -467.56,145.77 -916.32,347.05 -1347.15,578.78 -10.15,1221.68 0.64,2443.8 -5.4,3665.7 2.16,148.79 -4.32,299.97 28.94,446.39 43.41,220.7 88.55,442.5 166.28,654.14 103.24,243.81 201.7,491.31 340.79,717.85 355.91,580.93 823.68,1096.64 1378.25,1494.01 285.72,202.78 591.14,406.7 901.9,569.54 -5.03,307.31 -5.24,603.98 -7.62,911.51 -480.93,-215.09 -926.89,-500.38 -1357.07,-802.51 -184.43,-137.78 -359.15,-288.09 -531.27,-440.56 -450.92,-398.22 -828.21,-875.49 -1134.22,-1392.5 -155.48,-270.17 -276.43,-558.26 -378.79,-852.17 -93.3,-247.28 -119,-512.47 -182.05,-767.53 -43.19,-161.75 -42.98,-330.42 -45.14,-496.06 1.3,-1295.76 1.52,-2591.51 0,-3887.27 0.44,-99.35 1.08,-198.25 5.61,-297.16 172.13,-93.08 335.83,-200.63 510.98,-288.53 342.29,-192.85 706.39,-342.08 1072.45,-482.88 133.67,-49.03 271.69,-85.74 405.79,-133.89 193.92,-69.55 395.63,-111.66 594.97,-161.76 283.77,-51.4 566.03,-116.84 854.12,-139.28zm-1412.81 4397.37c454.02,40.59 1084.83,14.69 1859.19,24.62 -90.05,198.03 -208.83,381.17 -311.85,572.52 -160.02,291.97 -329.56,578.76 -490.44,870.3 -97.84,174.72 -206.46,343.17 -302.35,519.17 382.03,2.59 764.07,-2.16 1146.1,-0.43 -76.76,388.46 -174.66,882.35 -223.96,1271.58 -233.23,-28.73 -452.85,-125.25 -654.99,-241.45 -471.23,-271.02 -833.4,-736.21 -957.35,-1267.69 -54.43,-262.17 -66.3,-531.04 -65.87,-797.97 1.08,-317.03 0.65,-633.83 1.51,-950.65zm2021.81 -242.52c-364.55,3.23 -1986.88,-6.5 -2257.85,-8.21 -175.98,-43.18 -126.19,-570.27 -72.79,-676.6 13.18,-54.42 70.41,-62.64 114.47,-75.59 142.09,-18.57 286.15,-12.75 429.33,-13.82 743.33,5.61 1486.66,-3.88 2229.99,4.53 -149.56,255.5 -299.33,509.56 -443.15,769.69zm980.9 -772.49c590.87,-1.43 1212.61,6.65 1801.97,21.38 44.28,1.29 87.46,16.63 124.82,40.38 70.41,118.28 114.79,573.76 -20.3,685.45 -58.1,28.73 -129.14,20.53 -190.04,27.87 -585.26,16.74 -1248.01,41.94 -1827.88,16.63 42.02,-294.73 65.03,-450.49 111.44,-791.71zm256.99 -1614.52c-32.83,-173.63 133.46,-341 304.08,-329.77 96.31,-12.95 182.69,13.83 259.15,79.91 47.72,83.79 95.24,174.92 84.01,275.57 6.47,457.4 0,915.01 1.3,1372.41 -215.75,1.09 -431.49,1.09 -647.02,-0.2 -0.43,-466.05 -1.51,-932.09 -1.51,-1397.92zm-2523.28 -101.07c27,-133.24 161.54,-243.81 301.05,-225.03 103.45,1.51 234.75,17.93 283.99,126.55 83.37,81.42 51.83,201.27 61.77,303.64 -1.09,431.27 -1.09,862.54 -1.72,1293.83 -223.09,1.29 -445.75,1.49 -668.61,-0.44 0.65,-498.44 24.79,-1010.41 23.53,-1498.55zm1997.2 1774.98c-50.4,364.52 -137.27,789.81 -194.36,1162.08 -46.44,253.32 -98.92,505.78 -122.66,762.55 327.18,6.7 654.35,-4.1 981.53,9.94 -103.87,214.22 -238.85,411.18 -351.36,620.66 -121.37,227.84 -264.78,442.93 -389.6,669.04 -179.23,327.83 -384.61,640.54 -564.3,968.36 -82.07,128.93 -150.52,265.85 -234.32,393.7 63.96,-461.75 175.72,-916.46 262.39,-1421.67 27,-152.46 65.88,-302.77 84.88,-456.75 -333.66,-8 -667.09,1.29 -1000.33,-6.26 38.45,-94.39 89.64,-182.7 142.32,-269.74 187.02,-299.75 352.23,-612.24 525.87,-919.77 292.18,-501.03 563.65,-1013.5 859.94,-1512.15z"/>
   <path fill="white" fill-rule="nonzero" d="M1403.52 12820.56l-1403.52 0 0 3242.47 750.4 0 0 -893.99 653.12 0c866.2,0 1408.16,-449.31 1408.16,-1171.92 0,-727.24 -541.96,-1176.55 -1408.16,-1176.55zm-41.69 1737.04l-611.43 0 0 -1125.6 611.43 0c458.58,0 690.18,208.44 690.18,565.12 0,352.04 -231.6,560.49 -690.18,560.49z"/>
   <polygon id="_1" fill="white" fill-rule="nonzero" points="3339.74,16063.02 4062.35,16063.02 4062.35,12626.01 3339.74,12626.01 "/>
   <path id="_2" fill="white" fill-rule="nonzero" d="M6522 13570.96l0 1232.14c0,458.57 -240.87,671.65 -574.39,671.65 -319.61,0 -504.89,-185.28 -504.89,-602.18l0 -1301.62 -722.61 0 0 1408.15c0,768.93 440.05,1120.97 1065.38,1120.97 305.73,0 583.65,-115.81 773.57,-333.52l0 296.46 685.55 0 0 -2492.07 -722.61 0z"/>
   <path id="_3" fill="white" fill-rule="nonzero" d="M9801.52 13570.96l0 319.62c-189.92,-240.87 -477.11,-356.68 -824.52,-356.68 -690.18,0 -1246.04,477.11 -1246.04,1204.35 0,727.23 555.86,1204.34 1246.04,1204.34 324.25,0 597.54,-101.91 787.46,-310.35l0 106.54c0,449.31 -222.34,680.92 -731.87,680.92 -319.62,0 -667.02,-111.18 -880.1,-282.56l-287.19 518.79c291.82,226.98 750.4,342.78 1222.87,342.78 898.63,0 1398.9,-426.15 1398.9,-1352.57l0 -2075.17 -685.55 0zm-680.92 1778.73c-379.83,0 -657.75,-245.5 -657.75,-611.43 0,-365.94 277.92,-611.44 657.75,-611.44 379.83,0 653.12,245.5 653.12,611.44 0,365.93 -273.29,611.43 -653.12,611.43z"/>
   <path id="_4" fill="white" fill-rule="nonzero" d="M13632.26 16063.02l787.46 0 -1449.85 -3242.47 -741.14 0 -1445.21 3242.47 768.93 0 287.19 -694.81 1505.44 0 287.19 694.81zm-1551.76 -1264.57l514.16 -1241.4 514.17 1241.4 -1028.33 0z"/>
   <polygon id="_5" fill="white" fill-rule="nonzero" points="14706.9,16063.02 15429.51,16063.02 15429.51,12626.01 14706.9,12626.01 "/>
   <path id="_6" fill="white" fill-rule="nonzero" d="M18542.28 14826.25c0,-801.36 -565.12,-1292.36 -1296.99,-1292.36 -759.67,0 -1329.41,537.33 -1329.41,1283.09 0,741.14 560.49,1283.1 1422.06,1283.1 449.31,0 796.72,-138.96 1028.32,-402.99l-384.46 -416.89c-171.38,162.12 -361.3,240.87 -625.32,240.87 -379.83,0 -643.86,-189.91 -713.35,-500.27l1885.26 0c4.64,-60.22 13.9,-138.95 13.9,-194.54zm-1292.36 -745.77c324.25,0 560.49,203.81 611.44,518.8l-1227.51 0c50.95,-319.62 287.19,-518.8 616.06,-518.8z"/>
   <path id="_7" fill="white" fill-rule="nonzero" d="M19714.21 13899.83l0 -328.88 -690.19 0 0 2492.07 722.61 0 0 -1176.55c0,-477.11 264.03,-694.82 662.39,-694.82 55.59,0 101.91,4.64 162.12,9.27l0 -667.02c-384.46,0 -680.92,125.06 -856.93,365.93z"/>
   <path id="_8" fill="white" fill-rule="nonzero" d="M22502.73 15433.06c-78.75,60.22 -185.28,92.64 -291.82,92.64 -194.55,0 -310.35,-115.8 -310.35,-328.88l0 -1014.43 620.69 0 0 -555.85 -620.69 0 0 -606.8 -722.61 0 0 606.8 -384.46 0 0 555.85 384.46 0 0 1023.7c0,592.91 342.78,893.99 931.05,893.99 222.34,0 440.05,-50.96 588.28,-157.49l-194.55 -509.53z"/>
   <path id="_9" fill="white" fill-rule="nonzero" d="M24110.07 13533.9c-398.36,0 -801.35,106.54 -1074.65,301.09l259.4 504.9c180.65,-143.59 453.94,-231.61 717.97,-231.61 389.1,0 574.39,180.65 574.39,491.01l-574.39 0c-759.66,0 -1070.02,305.72 -1070.02,745.77 0,430.78 347.42,755.03 931.06,755.03 365.93,0 625.32,-120.44 759.66,-347.41l0 310.35 676.28 0 0 -1422.05c0,-755.04 -440.04,-1107.07 -1199.71,-1107.07zm-55.59 2079.81c-254.76,0 -407.62,-120.44 -407.62,-301.09 0,-166.75 106.55,-291.83 444.68,-291.83l495.64 0 0 254.77c-83.38,226.97 -291.83,338.15 -532.7,338.15z"/>
  </g>
 </g>
</svg>
